<svg xmlns="http://www.w3.org/2000/svg" xmlns:xlink="http://www.w3.org/1999/xlink" width="200" zoomAndPan="magnify" viewBox="0 0 150 36.000001" height="48" preserveAspectRatio="xMidYMid meet" version="1.0"><defs><g/><clipPath id="0b15e6da4f"><path d="M 2.027344 25 L 36 25 L 36 35.027344 L 2.027344 35.027344 Z M 2.027344 25 " clip-rule="nonzero"/></clipPath><clipPath id="1303737074"><path d="M 2.027344 0.28125 L 41.433594 0.28125 L 41.433594 35.027344 L 2.027344 35.027344 Z M 2.027344 0.28125 " clip-rule="nonzero"/></clipPath></defs><g clip-path="url(#0b15e6da4f)"><path fill="#115cdf" d="M 26.707031 28.707031 C 25.839844 28.707031 25.128906 27.996094 25.128906 27.125 C 25.128906 26.257812 25.835938 25.546875 26.707031 25.546875 L 33.738281 25.546875 C 34.605469 25.546875 35.320312 26.253906 35.320312 27.125 C 35.320312 27.992188 34.609375 28.707031 33.738281 28.707031 Z M 3.609375 28.707031 L 9.230469 28.707031 C 10.101562 28.707031 10.8125 27.996094 10.8125 27.125 C 10.8125 26.257812 10.105469 25.546875 9.230469 25.546875 L 3.609375 25.546875 C 2.738281 25.550781 2.027344 26.257812 2.027344 27.128906 C 2.027344 27.996094 2.738281 28.707031 3.609375 28.707031 Z M 3.609375 35.023438 L 9.230469 35.023438 C 10.101562 35.023438 10.8125 34.316406 10.8125 33.441406 C 10.8125 32.574219 10.105469 31.863281 9.230469 31.863281 L 3.609375 31.863281 C 2.738281 31.867188 2.027344 32.574219 2.027344 33.445312 C 2.027344 34.316406 2.738281 35.023438 3.609375 35.023438 Z M 3.609375 35.023438 " fill-opacity="1" fill-rule="evenodd"/></g><g clip-path="url(#1303737074)"><path fill="#19174e" d="M 26.710938 35.023438 C 25.84375 35.023438 25.132812 34.316406 25.132812 33.441406 C 25.132812 32.574219 25.839844 31.863281 26.710938 31.863281 L 33.742188 31.863281 C 36.359375 31.863281 38.480469 29.742188 38.480469 27.125 C 38.480469 24.507812 36.359375 22.386719 33.742188 22.386719 L 33.742188 22.375 L 20.027344 22.375 C 19.960938 22.382812 19.898438 22.386719 19.832031 22.386719 L 3.609375 22.386719 C 2.738281 22.390625 2.027344 21.679688 2.027344 20.8125 C 2.027344 19.945312 2.738281 19.230469 3.609375 19.230469 L 20.742188 19.230469 C 21.609375 19.230469 22.324219 18.523438 22.324219 17.652344 C 22.324219 16.785156 21.613281 16.070312 20.742188 16.070312 L 3.609375 16.070312 C 2.738281 16.074219 2.027344 15.359375 2.027344 14.492188 C 2.027344 13.625 2.738281 12.917969 3.609375 12.917969 L 20.742188 12.917969 C 21.609375 12.917969 22.324219 12.207031 22.324219 11.335938 C 22.324219 10.46875 21.613281 9.757812 20.742188 9.757812 L 3.609375 9.757812 C 2.738281 9.757812 2.027344 9.046875 2.027344 8.175781 C 2.027344 7.308594 2.738281 6.59375 3.609375 6.59375 L 20.742188 6.59375 C 21.609375 6.59375 22.324219 5.886719 22.324219 5.015625 C 22.324219 4.148438 21.613281 3.433594 20.742188 3.433594 L 3.609375 3.433594 C 2.738281 3.4375 2.027344 2.730469 2.027344 1.863281 C 2.027344 0.992188 2.738281 0.28125 3.609375 0.28125 L 33.742188 0.28125 C 38.085938 0.28125 41.636719 3.835938 41.636719 8.175781 L 41.636719 27.125 C 41.636719 31.488281 38.105469 35.019531 33.742188 35.019531 L 26.710938 35.019531 Z M 17.667969 32.484375 C 17.851562 32.347656 18.09375 32.347656 18.269531 32.484375 L 21.320312 34.804688 C 21.476562 34.925781 21.671875 34.941406 21.84375 34.855469 C 22.019531 34.769531 22.121094 34.605469 22.121094 34.410156 L 22.121094 26.046875 C 22.121094 25.773438 21.894531 25.550781 21.621094 25.550781 L 14.308594 25.550781 C 14.035156 25.550781 13.8125 25.773438 13.8125 26.046875 L 13.8125 34.410156 C 13.8125 34.605469 13.914062 34.769531 14.089844 34.855469 C 14.261719 34.945312 14.457031 34.925781 14.613281 34.804688 Z M 17.667969 32.484375 " fill-opacity="1" fill-rule="evenodd"/></g><g fill="#19174e" fill-opacity="1"><g transform="translate(48.69024, 17.946249)"><g><path d="M 4.359375 -10.5625 L 4.359375 -7.90625 L 8.640625 -7.90625 L 8.640625 -5.4375 L 4.359375 -5.4375 L 4.359375 -2.5625 L 9.1875 -2.5625 L 9.1875 0 L 1.15625 0 L 1.15625 -13.125 L 9.1875 -13.125 L 9.1875 -10.5625 Z M 4.359375 -10.5625 "/></g></g></g><g fill="#19174e" fill-opacity="1"><g transform="translate(58.794152, 17.946249)"><g><path d="M 9.1875 -7.890625 L 9.1875 -5.234375 L 0.96875 -5.234375 L 0.96875 -7.890625 Z M 9.1875 -7.890625 "/></g></g></g><g fill="#19174e" fill-opacity="1"><g transform="translate(69.626444, 17.946249)"><g><path d="M 16.015625 -13.125 L 16.015625 0 L 12.8125 0 L 12.8125 -7.875 L 9.890625 0 L 7.3125 0 L 4.359375 -7.890625 L 4.359375 0 L 1.15625 0 L 1.15625 -13.125 L 4.9375 -13.125 L 8.609375 -4.03125 L 12.265625 -13.125 Z M 16.015625 -13.125 "/></g></g></g><g fill="#19174e" fill-opacity="1"><g transform="translate(86.771346, 17.946249)"><g><path d="M 5.90625 0.15625 C 4.882812 0.15625 3.960938 -0.0625 3.140625 -0.5 C 2.328125 -0.9375 1.6875 -1.5625 1.21875 -2.375 C 0.75 -3.1875 0.515625 -4.132812 0.515625 -5.21875 C 0.515625 -6.289062 0.75 -7.234375 1.21875 -8.046875 C 1.695312 -8.859375 2.347656 -9.484375 3.171875 -9.921875 C 3.992188 -10.359375 4.914062 -10.578125 5.9375 -10.578125 C 6.957031 -10.578125 7.878906 -10.359375 8.703125 -9.921875 C 9.523438 -9.484375 10.171875 -8.859375 10.640625 -8.046875 C 11.117188 -7.234375 11.359375 -6.289062 11.359375 -5.21875 C 11.359375 -4.144531 11.117188 -3.195312 10.640625 -2.375 C 10.160156 -1.5625 9.503906 -0.9375 8.671875 -0.5 C 7.847656 -0.0625 6.925781 0.15625 5.90625 0.15625 Z M 5.90625 -2.609375 C 6.519531 -2.609375 7.039062 -2.832031 7.46875 -3.28125 C 7.894531 -3.738281 8.109375 -4.382812 8.109375 -5.21875 C 8.109375 -6.050781 7.898438 -6.691406 7.484375 -7.140625 C 7.066406 -7.585938 6.550781 -7.8125 5.9375 -7.8125 C 5.320312 -7.8125 4.804688 -7.585938 4.390625 -7.140625 C 3.984375 -6.703125 3.78125 -6.0625 3.78125 -5.21875 C 3.78125 -4.382812 3.976562 -3.738281 4.375 -3.28125 C 4.78125 -2.832031 5.289062 -2.609375 5.90625 -2.609375 Z M 5.90625 -2.609375 "/></g></g></g><g fill="#19174e" fill-opacity="1"><g transform="translate(98.668192, 17.946249)"><g><path d="M 0.515625 -5.234375 C 0.515625 -6.304688 0.71875 -7.242188 1.125 -8.046875 C 1.53125 -8.859375 2.082031 -9.484375 2.78125 -9.921875 C 3.476562 -10.359375 4.257812 -10.578125 5.125 -10.578125 C 5.800781 -10.578125 6.421875 -10.429688 6.984375 -10.140625 C 7.554688 -9.859375 8.003906 -9.472656 8.328125 -8.984375 L 8.328125 -13.828125 L 11.53125 -13.828125 L 11.53125 0 L 8.328125 0 L 8.328125 -1.5 C 8.035156 -1 7.609375 -0.597656 7.046875 -0.296875 C 6.492188 0.00390625 5.851562 0.15625 5.125 0.15625 C 4.257812 0.15625 3.476562 -0.0625 2.78125 -0.5 C 2.082031 -0.945312 1.53125 -1.578125 1.125 -2.390625 C 0.71875 -3.210938 0.515625 -4.160156 0.515625 -5.234375 Z M 8.328125 -5.21875 C 8.328125 -6.007812 8.101562 -6.632812 7.65625 -7.09375 C 7.21875 -7.5625 6.6875 -7.796875 6.0625 -7.796875 C 5.425781 -7.796875 4.882812 -7.566406 4.4375 -7.109375 C 4 -6.648438 3.78125 -6.023438 3.78125 -5.234375 C 3.78125 -4.429688 4 -3.796875 4.4375 -3.328125 C 4.882812 -2.867188 5.425781 -2.640625 6.0625 -2.640625 C 6.6875 -2.640625 7.21875 -2.867188 7.65625 -3.328125 C 8.101562 -3.785156 8.328125 -4.414062 8.328125 -5.21875 Z M 8.328125 -5.21875 "/></g></g></g><g fill="#19174e" fill-opacity="1"><g transform="translate(111.349445, 17.946249)"><g><path d="M 11.453125 -10.421875 L 11.453125 0 L 8.265625 0 L 8.265625 -1.421875 C 7.941406 -0.960938 7.5 -0.59375 6.9375 -0.3125 C 6.382812 -0.03125 5.773438 0.109375 5.109375 0.109375 C 4.304688 0.109375 3.597656 -0.0664062 2.984375 -0.421875 C 2.378906 -0.773438 1.90625 -1.285156 1.5625 -1.953125 C 1.226562 -2.628906 1.0625 -3.421875 1.0625 -4.328125 L 1.0625 -10.421875 L 4.234375 -10.421875 L 4.234375 -4.765625 C 4.234375 -4.066406 4.414062 -3.523438 4.78125 -3.140625 C 5.144531 -2.753906 5.628906 -2.5625 6.234375 -2.5625 C 6.859375 -2.5625 7.351562 -2.753906 7.71875 -3.140625 C 8.082031 -3.523438 8.265625 -4.066406 8.265625 -4.765625 L 8.265625 -10.421875 Z M 11.453125 -10.421875 "/></g></g></g><g fill="#19174e" fill-opacity="1"><g transform="translate(123.937312, 17.946249)"><g><path d="M 4.359375 -13.828125 L 4.359375 0 L 1.15625 0 L 1.15625 -13.828125 Z M 4.359375 -13.828125 "/></g></g></g><g fill="#737373" fill-opacity="1"><g transform="translate(48.69024, 29.6522)"><g><path d="M 0.640625 0 L 0.640625 -4.984375 L 2.78125 -4.984375 C 3.082031 -4.984375 3.335938 -4.9375 3.546875 -4.84375 C 3.765625 -4.75 3.925781 -4.609375 4.03125 -4.421875 C 4.144531 -4.242188 4.203125 -4.035156 4.203125 -3.796875 C 4.203125 -3.578125 4.144531 -3.378906 4.03125 -3.203125 C 3.925781 -3.035156 3.773438 -2.90625 3.578125 -2.8125 L 3.578125 -2.734375 C 3.890625 -2.648438 4.128906 -2.5 4.296875 -2.28125 C 4.472656 -2.070312 4.5625 -1.8125 4.5625 -1.5 C 4.5625 -1.019531 4.414062 -0.648438 4.125 -0.390625 C 3.84375 -0.128906 3.414062 0 2.84375 0 Z M 2.578125 -3 C 3.035156 -3 3.265625 -3.207031 3.265625 -3.625 C 3.265625 -3.832031 3.207031 -3.988281 3.09375 -4.09375 C 2.976562 -4.195312 2.804688 -4.25 2.578125 -4.25 L 1.640625 -4.25 L 1.640625 -3 Z M 2.75 -0.78125 C 3.289062 -0.78125 3.5625 -1.023438 3.5625 -1.515625 C 3.5625 -2.015625 3.289062 -2.265625 2.75 -2.265625 L 1.640625 -2.265625 L 1.640625 -0.78125 Z M 2.75 -0.78125 "/></g></g></g><g fill="#737373" fill-opacity="1"><g transform="translate(54.709784, 29.6522)"><g><path d="M 1.640625 -2.1875 L 1.640625 -0.828125 L 4.015625 -0.828125 L 4.015625 0 L 0.640625 0 L 0.640625 -4.984375 L 3.953125 -4.984375 L 3.953125 -4.15625 L 1.640625 -4.15625 L 1.640625 -3 L 3.671875 -3 L 3.671875 -2.1875 Z M 1.640625 -2.1875 "/></g></g></g><g fill="#737373" fill-opacity="1"><g transform="translate(60.139704, 29.6522)"><g><path d="M 0.640625 0 L 0.640625 -4.984375 L 2.65625 -4.984375 C 3.164062 -4.984375 3.550781 -4.863281 3.8125 -4.625 C 4.082031 -4.382812 4.21875 -4.054688 4.21875 -3.640625 C 4.21875 -3.335938 4.140625 -3.085938 3.984375 -2.890625 C 3.828125 -2.703125 3.597656 -2.554688 3.296875 -2.453125 L 3.296875 -2.390625 C 3.453125 -2.316406 3.578125 -2.210938 3.671875 -2.078125 C 3.765625 -1.941406 3.859375 -1.742188 3.953125 -1.484375 L 4.453125 0 L 3.4375 0 L 2.953125 -1.484375 C 2.898438 -1.640625 2.84375 -1.757812 2.78125 -1.84375 C 2.71875 -1.925781 2.632812 -1.984375 2.53125 -2.015625 C 2.4375 -2.054688 2.3125 -2.078125 2.15625 -2.078125 L 1.640625 -2.078125 L 1.640625 0 Z M 2.53125 -2.859375 C 3.007812 -2.859375 3.25 -3.082031 3.25 -3.53125 C 3.25 -3.976562 3.007812 -4.203125 2.53125 -4.203125 L 1.640625 -4.203125 L 1.640625 -2.859375 Z M 2.53125 -2.859375 "/></g></g></g><g fill="#737373" fill-opacity="1"><g transform="translate(65.94453, 29.6522)"><g><path d="M 1.75 0.078125 C 1.320312 0.078125 0.96875 0 0.6875 -0.15625 C 0.40625 -0.320312 0.203125 -0.539062 0.078125 -0.8125 L 0.640625 -1.484375 L 0.71875 -1.484375 C 0.8125 -1.265625 0.941406 -1.09375 1.109375 -0.96875 C 1.273438 -0.84375 1.46875 -0.78125 1.6875 -0.78125 C 1.9375 -0.78125 2.117188 -0.851562 2.234375 -1 C 2.359375 -1.144531 2.421875 -1.378906 2.421875 -1.703125 L 2.421875 -4.984375 L 3.40625 -4.984375 L 3.40625 -1.6875 C 3.40625 -1.082031 3.265625 -0.632812 2.984375 -0.34375 C 2.710938 -0.0625 2.300781 0.078125 1.75 0.078125 Z M 1.75 0.078125 "/></g></g></g><g fill="#737373" fill-opacity="1"><g transform="translate(71.112013, 29.6522)"><g><path d="M 1.640625 -2.1875 L 1.640625 -0.828125 L 4.015625 -0.828125 L 4.015625 0 L 0.640625 0 L 0.640625 -4.984375 L 3.953125 -4.984375 L 3.953125 -4.15625 L 1.640625 -4.15625 L 1.640625 -3 L 3.671875 -3 L 3.671875 -2.1875 Z M 1.640625 -2.1875 "/></g></g></g><g fill="#737373" fill-opacity="1"><g transform="translate(76.541934, 29.6522)"><g><path d="M 1.609375 0 L 0.640625 0 L 0.640625 -4.984375 L 1.78125 -4.984375 L 3.78125 -1.765625 L 3.875 -1.78125 L 3.875 -4.984375 L 4.8125 -4.984375 L 4.8125 0 L 3.8125 0 L 1.6875 -3.4375 L 1.609375 -3.421875 Z M 1.609375 0 "/></g></g></g><g fill="#737373" fill-opacity="1"><g transform="translate(83.151108, 29.6522)"><g><path d="M 1.75 0.078125 C 1.320312 0.078125 0.96875 0 0.6875 -0.15625 C 0.40625 -0.320312 0.203125 -0.539062 0.078125 -0.8125 L 0.640625 -1.484375 L 0.71875 -1.484375 C 0.8125 -1.265625 0.941406 -1.09375 1.109375 -0.96875 C 1.273438 -0.84375 1.46875 -0.78125 1.6875 -0.78125 C 1.9375 -0.78125 2.117188 -0.851562 2.234375 -1 C 2.359375 -1.144531 2.421875 -1.378906 2.421875 -1.703125 L 2.421875 -4.984375 L 3.40625 -4.984375 L 3.40625 -1.6875 C 3.40625 -1.082031 3.265625 -0.632812 2.984375 -0.34375 C 2.710938 -0.0625 2.300781 0.078125 1.75 0.078125 Z M 1.75 0.078125 "/></g></g></g><g fill="#737373" fill-opacity="1"><g transform="translate(88.318591, 29.6522)"><g><path d="M 4.78125 0 L 3.75 0 L 3.375 -1.15625 L 1.46875 -1.15625 L 1.09375 0 L 0.078125 0 L 1.796875 -4.984375 L 3.0625 -4.984375 Z M 2.375 -3.953125 L 1.734375 -1.984375 L 3.09375 -1.984375 L 2.453125 -3.953125 Z M 2.375 -3.953125 "/></g></g></g><g fill="#737373" fill-opacity="1"><g transform="translate(94.321097, 29.6522)"><g><path d="M 1.609375 0 L 0.640625 0 L 0.640625 -4.984375 L 1.78125 -4.984375 L 3.78125 -1.765625 L 3.875 -1.78125 L 3.875 -4.984375 L 4.8125 -4.984375 L 4.8125 0 L 3.8125 0 L 1.6875 -3.4375 L 1.609375 -3.421875 Z M 1.609375 0 "/></g></g></g><g fill="#737373" fill-opacity="1"><g transform="translate(100.930272, 29.6522)"><g><path d="M 2.421875 0.078125 C 2.003906 0.078125 1.644531 -0.015625 1.34375 -0.203125 C 1.039062 -0.398438 0.804688 -0.6875 0.640625 -1.0625 C 0.472656 -1.445312 0.390625 -1.925781 0.390625 -2.5 C 0.390625 -3.0625 0.488281 -3.535156 0.6875 -3.921875 C 0.882812 -4.304688 1.160156 -4.59375 1.515625 -4.78125 C 1.867188 -4.96875 2.273438 -5.0625 2.734375 -5.0625 C 3.210938 -5.0625 3.617188 -4.972656 3.953125 -4.796875 C 4.285156 -4.617188 4.523438 -4.351562 4.671875 -4 L 3.953125 -3.5625 L 3.859375 -3.5625 C 3.753906 -3.789062 3.609375 -3.953125 3.421875 -4.046875 C 3.242188 -4.148438 3.015625 -4.203125 2.734375 -4.203125 C 2.304688 -4.203125 1.976562 -4.066406 1.75 -3.796875 C 1.519531 -3.523438 1.40625 -3.09375 1.40625 -2.5 C 1.40625 -1.894531 1.507812 -1.453125 1.71875 -1.171875 C 1.9375 -0.898438 2.253906 -0.765625 2.671875 -0.765625 C 3.023438 -0.765625 3.285156 -0.84375 3.453125 -1 C 3.628906 -1.164062 3.71875 -1.410156 3.71875 -1.734375 L 3.71875 -1.953125 L 2.546875 -1.953125 L 2.546875 -2.75 L 4.703125 -2.75 L 4.703125 0 L 3.765625 0 L 3.765625 -0.671875 L 3.6875 -0.671875 C 3.582031 -0.441406 3.425781 -0.257812 3.21875 -0.125 C 3.007812 0.0078125 2.742188 0.078125 2.421875 0.078125 Z M 2.421875 0.078125 "/></g></g></g></svg>